<?xml version="1.0" encoding="UTF-8" standalone="no"?><svg xmlns="http://www.w3.org/2000/svg" xmlns:xlink="http://www.w3.org/1999/xlink" fill="#bc9a50" height="441.9" preserveAspectRatio="xMidYMid meet" version="1" viewBox="15.2 34.5 482.8 441.9" width="482.8" zoomAndPan="magnify"><g id="change1_1"><path clip-rule="evenodd" d="M349.858,36.366c28.53,0,54.828,9.546,75.887,25.608l-73.347,87.06l-29.006-29.006 c-13.498-13.498-35.404-13.499-48.901,0.001c-13.498,13.499-13.498,35.402,0,48.9l54.505,54.505 c13.498,13.498,35.403,13.498,48.901,0c9.472-9.473,18.486-20.228,27.156-30.448c11.984-14.127,23.779-28.422,35.582-42.7 c8.882-10.744,17.755-21.501,26.703-32.192c5.026,13.557,7.776,28.221,7.776,43.528c0,69.177-56.079,125.256-125.256,125.256 c-69.177,0-125.256-56.079-125.256-125.256C224.602,92.446,280.681,36.366,349.858,36.366L349.858,36.366z M129.335,452.667 c-25.642-45.308-51.284-90.616-76.927-135.924c-1.473-2.602-4.855-3.559-7.463-2.083l-26.166,14.808 c-2.602,1.473-3.559,4.855-2.083,7.463l76.927,135.925c1.472,2.602,4.856,3.559,7.463,2.083l26.166-14.809 C129.853,458.658,130.81,455.275,129.335,452.667L129.335,452.667z M127.626,416.142l18.696-10.794 c1.966-1.129,4.202-1.358,6.232-0.816L275.316,437.4c18.06,4.84,28.41,1.673,44.373-6.475l168.657-103.852 c8.58-5.282,9.691-19.712,4.607-27.903c-11.213-18.067-42.271-3.026-55.175,4.49l-93.258,54.318 c-14.515,8.453-30.521,11.017-47.035,8.239c-25.247-4.106-49.441-11.786-74.08-18.387c-4.409-1.178-7.029-5.708-5.851-10.118 c1.178-4.409,5.708-7.029,10.118-5.851c20.169,5.403,40.159,11.899,60.606,16.127c10.386,1.271,18.957-2.006,21.839-12.763 c2.615-9.761-3.569-18.967-12.758-22.151c-28.006-5.126-55.189-14.954-76.563-22.681c-30.98-11.199-39.262-13.787-69.804,3.895 L81.45,334.551L127.626,416.142L127.626,416.142z M52.54,340.936c0.746,5.105-2.787,9.849-7.893,10.596 c-5.105,0.746-9.849-2.787-10.595-7.892c-0.746-5.105,2.787-9.849,7.892-10.595S51.793,335.831,52.54,340.936L52.54,340.936z M353.407,172.671l-41.328-41.328c-7.254-7.254-19.02-7.254-26.274,0c-7.254,7.254-7.254,19.02,0,26.274l54.505,54.505 c7.254,7.254,19.02,7.254,26.274,0c24.812-24.812,98.655-119.216,123.353-144.142c7.202-7.268,7.179-18.997-0.08-26.216 c-7.26-7.22-19.022-7.2-26.232,0.082L353.407,172.671z" fill-rule="evenodd"/></g></svg>