<?xml version="1.0" encoding="UTF-8" standalone="no"?><svg xmlns="http://www.w3.org/2000/svg" xmlns:xlink="http://www.w3.org/1999/xlink" fill="#bc9a50" height="432" preserveAspectRatio="xMidYMid meet" version="1" viewBox="50.8 30.7 391.0 432.0" width="391" zoomAndPan="magnify"><g clip-rule="evenodd" fill-rule="evenodd" id="change1_1"><path d="M289.53,92.57c-4.69,0-8.5,3.81-8.5,8.5v21.38c0,4.69,3.81,8.5,8.5,8.5c4.69,0,8.5-3.81,8.5-8.5v-21.38 C298.02,96.38,294.2,92.57,289.53,92.57z"/><path d="M237.77,92.56v16.71h10.69c4.61,0,8.35-3.75,8.35-8.35c0-4.61-3.75-8.35-8.35-8.35L237.77,92.56z"/><path d="M194.51,92.56v16.71h10.69c4.61,0,8.35-3.75,8.35-8.35c0-4.61-3.75-8.35-8.35-8.35L194.51,92.56z"/><path d="M246.27,30.74c-44.67,0-81.02,36.34-81.02,81.02c0,44.67,36.34,81.02,81.02,81.02s81.02-36.34,81.02-81.02 C327.28,67.08,290.94,30.74,246.27,30.74L246.27,30.74z M205.19,82.33c10.25,0,18.59,8.34,18.59,18.59 c0,10.25-8.33,18.58-18.58,18.58h-10.7v16.55c0,2.83-2.29,5.12-5.12,5.12c-2.83,0-5.12-2.29-5.12-5.12v-21.67l0-26.93 c0-2.83,2.29-5.12,5.12-5.12H205.19L205.19,82.33z M232.66,82.33h15.81c10.25,0,18.59,8.34,18.59,18.59 c0,7.99-5.07,14.81-12.15,17.43l4.63,16.31c0.77,2.72-0.81,5.55-3.53,6.32c-0.46,0.13-0.93,0.19-1.39,0.19 c-2.23,0-4.28-1.47-4.92-3.73l-5.09-17.95h-6.82v16.55c0,2.83-2.29,5.12-5.12,5.12s-5.12-2.29-5.12-5.12v-21.67 c0-0.11,0-0.21,0.01-0.32V87.45C227.54,84.63,229.83,82.33,232.66,82.33L232.66,82.33z M289.53,141.18 c-10.33,0-18.73-8.4-18.73-18.73v-21.38c0-10.33,8.4-18.73,18.73-18.73c10.33,0,18.73,8.4,18.73,18.73v21.38 C308.26,132.77,299.86,141.18,289.53,141.18z"/><path d="M329.5,241c0,16.28,9.81,30.32,23.82,36.51c0.31,0.1,0.6,0.22,0.88,0.37c4.69,1.94,9.83,3.02,15.21,3.02 c5.42,0,10.59-1.09,15.3-3.05c0.23-0.12,0.47-0.23,0.72-0.31c14.05-6.18,23.88-20.24,23.88-36.54v-25.6c0-2.9-0.31-5.77-0.94-8.59 c-5.65-0.63-11.64,0.7-16.92,2.06c-1.93,0.49-11.83,2.88-23.39,2.88c-10.63,0-22.64-2.01-31.16-9.35 c-1.36-1.17-2.58-2.43-3.67-3.78c-2.45,5.22-3.72,10.91-3.72,16.78V241z"/><path d="M356.88,305c0,6.91,5.62,12.54,12.54,12.54c6.92,0,12.54-5.62,12.54-12.54v-11.16 c-0.01-0.11-0.01-0.22-0.01-0.33c0-0.11,0-0.22,0.01-0.33v-3.63c-4.01,1.04-8.21,1.59-12.54,1.59c-4.33,0-8.53-0.55-12.54-1.59 v3.66c0.01,0.1,0.01,0.21,0.01,0.31c0,0.11,0,0.21-0.01,0.31V305z"/><path d="M346.64,298.79c-27.24,2.03-48.87,24.51-49.55,52.1c8.68,5.06,16.06,12.11,21.52,20.52v-19.84 c0-2.83,2.29-5.12,5.12-5.12s5.12,2.29,5.12,5.12v53.69c0,0.27,0.01,0.53,0.01,0.8v2.85l81.13,0v-40.55v-16.79 c0-2.83,2.29-5.12,5.12-5.12s5.12,2.29,5.12,5.12v11.67l21.54,0v-11.01c0-28.2-21.89-51.38-49.57-53.44V305 c0,12.56-10.22,22.78-22.78,22.78c-12.56,0-22.78-10.22-22.78-22.78V298.79z"/><path d="M420.22 373.47H441.76000000000005V408.90000000000003H420.22z"/><path d="M297.07 427.31H318.62V462.74H297.07z"/><path d="M202.41,358.72c-16.93,9.01-28.49,26.85-28.49,47.34v11.01l21.54,0V405.4c0-2.83,2.29-5.12,5.12-5.12 c2.83,0,5.12,2.29,5.12,5.12v16.79v40.55h81.14v-40.23c-0.01-0.11-0.01-0.21-0.01-0.32c0-0.11,0-0.21,0.01-0.32V405.4 c0-2.83,2.29-5.12,5.12-5.12c2.83,0,5.12,2.29,5.12,5.12v11.67l21.55,0v-2.73c-0.01-0.11-0.01-0.21-0.01-0.32 c0-0.11,0-0.21,0.01-0.32v-7.33c-0.01-0.11-0.01-0.21-0.01-0.32v-0.84c-0.31-20.12-11.76-37.59-28.45-46.48 c-0.39-0.14-0.75-0.33-1.09-0.56c-6.1-3.08-12.87-5.02-20.03-5.56v6.21c0,12.56-10.22,22.78-22.78,22.78 c-12.56,0-22.78-10.22-22.78-22.78v-6.21c-7.17,0.53-13.95,2.49-20.06,5.58C203.11,358.41,202.77,358.58,202.41,358.72z"/><path d="M173.92 427.31H195.45999999999998V462.74H173.92z"/><path d="M233.73,343.38v3.65c0.01,0.11,0.01,0.21,0.01,0.32c0,0.11,0,0.21-0.01,0.32v11.16 c0,6.91,5.62,12.54,12.54,12.54c6.91,0,12.54-5.62,12.54-12.54v-15.45c-4.01,1.04-8.21,1.59-12.54,1.59 C241.94,344.96,237.73,344.41,233.73,343.38z"/><path d="M210.07,252.45c-2.45,5.22-3.72,10.91-3.72,16.77v25.6c0,16.28,9.81,30.32,23.82,36.51 c0.31,0.1,0.6,0.22,0.88,0.37c4.69,1.94,9.83,3.02,15.21,3.02c5.41,0,10.57-1.09,15.28-3.04c0.24-0.13,0.49-0.24,0.76-0.32 c14.04-6.19,23.86-20.24,23.86-36.53v-25.6c0-2.9-0.31-5.77-0.94-8.58c-5.64-0.63-11.64,0.7-16.93,2.06 c-1.95,0.49-11.84,2.88-23.39,2.88c-10.63,0-22.64-2.01-31.16-9.35C212.39,255.06,211.16,253.8,210.07,252.45z"/><path d="M238.24,228.28c-8.5,2.66-17.62,5.22-24.64,4.71c0.13,2.69,0.57,5.12,1.32,7.3c0.08,0.19,0.16,0.39,0.21,0.6 c1.14,3.02,2.9,5.53,5.28,7.58c11.28,9.7,34.58,7.06,45.33,4.31c5.8-1.48,11.89-2.73,18.01-2.51c-1.29-5.02-4.78-10.04-10.1-14.33 c-9.91-8-23.46-11.28-33.7-8.19C239.47,227.89,238.89,228.08,238.24,228.28z"/><path d="M336.75,179.16c0.14,2.71,0.58,5.16,1.34,7.35c0.07,0.17,0.13,0.34,0.18,0.51c1.14,3.03,2.9,5.56,5.29,7.62 c11.28,9.71,34.58,7.06,45.33,4.31c5.8-1.48,11.89-2.74,18.01-2.51c-1.29-5.02-4.78-10.04-10.1-14.33 c-9.91-8-23.45-11.28-33.7-8.19c-0.48,0.14-1.05,0.33-1.71,0.53C352.9,177.12,343.78,179.67,336.75,179.16z"/><path d="M90.44,179.16c0.13,2.67,0.57,5.07,1.3,7.24c0.11,0.24,0.19,0.48,0.26,0.73c1.14,2.98,2.89,5.48,5.25,7.51 c11.28,9.71,34.58,7.06,45.33,4.31c5.8-1.48,11.9-2.74,18.01-2.51c-1.29-5.02-4.78-10.04-10.1-14.33c-9.91-8-23.45-11.28-33.7-8.19 c-0.48,0.14-1.05,0.33-1.71,0.53C106.59,177.12,97.47,179.67,90.44,179.16z"/><path d="M86.92,198.62c-2.45,5.22-3.72,10.9-3.72,16.77V241c0,16.28,9.81,30.32,23.82,36.51 c0.31,0.1,0.6,0.22,0.88,0.37c4.69,1.94,9.83,3.02,15.21,3.02c5.41,0,10.58-1.09,15.29-3.05c0.24-0.13,0.49-0.24,0.76-0.32 c14.04-6.19,23.86-20.24,23.86-36.53v-25.6c0-2.9-0.31-5.77-0.94-8.59c-5.65-0.64-11.64,0.7-16.93,2.06 c-1.93,0.49-11.83,2.88-23.39,2.88c-10.63,0-22.64-2.01-31.16-9.35C89.23,201.23,88.01,199.97,86.92,198.62z"/><path d="M123.11,291.14c-4.33,0-8.53-0.55-12.54-1.59V305c0,6.91,5.62,12.54,12.54,12.54 c6.92,0,12.54-5.62,12.54-12.54v-11.15c-0.01-0.11-0.01-0.21-0.01-0.32c0-0.11,0-0.22,0.01-0.32v-3.65 C131.65,290.59,127.44,291.14,123.11,291.14z"/><path d="M100.34,298.78c-27.69,2.06-49.58,25.24-49.58,53.44v11.01l21.55,0v-11.67c0-2.83,2.29-5.12,5.12-5.12 c2.83,0,5.12,2.29,5.12,5.12v16.79v40.55l81.14,0v-2.85v-54.49c0-2.83,2.29-5.12,5.12-5.12c2.83,0,5.12,2.29,5.12,5.12v19.86 c5.46-8.41,12.84-15.47,21.52-20.53c-0.68-27.59-22.31-50.07-49.55-52.1V305c-0.01,12.56-10.23,22.78-22.78,22.78 c-12.56,0-22.78-10.22-22.78-22.78V298.78z"/><path d="M50.76 373.47H72.31V408.90000000000003H50.76z"/></g></svg>