<?xml version="1.0" encoding="UTF-8" standalone="no"?><svg xmlns="http://www.w3.org/2000/svg" xmlns:xlink="http://www.w3.org/1999/xlink" fill="#bc9a50" height="65" preserveAspectRatio="xMidYMid meet" version="1" viewBox="6.4 4.5 61.2 65.0" width="61.2" zoomAndPan="magnify"><g id="change1_1"><path d="M58.84,17.64c-0.61,0-1.2,0.06-1.78,0.18c0.13-0.69,0.2-1.4,0.2-2.12c0-6.18-5.03-11.21-11.21-11.21 c-5.12,0-9.56,3.48-10.84,8.37c-1.24-0.75-2.64-1.15-4.09-1.15c-4.38,0-7.94,3.56-7.94,7.94c0,0.51,0.05,1.01,0.14,1.5 c-0.67-0.2-1.36-0.31-2.08-0.31c-2.89,0-5.48,1.72-6.6,4.38c-0.11,0.25,0.01,0.55,0.27,0.66c0.25,0.11,0.55-0.01,0.65-0.27 c0.97-2.29,3.2-3.77,5.68-3.77c0.91,0,1.79,0.19,2.6,0.58c0.18,0.09,0.4,0.05,0.55-0.08c0.15-0.13,0.2-0.34,0.14-0.54 c-0.23-0.67-0.35-1.39-0.35-2.15c0-3.83,3.11-6.94,6.94-6.94c1.49,0,2.91,0.48,4.12,1.38c0.14,0.1,0.32,0.13,0.48,0.07 c0.16-0.06,0.28-0.2,0.31-0.37c0.92-4.8,5.14-8.29,10.03-8.29c5.63,0,10.21,4.58,10.21,10.21c0,0.93-0.12,1.83-0.36,2.68 c-0.05,0.18,0,0.37,0.14,0.49s0.32,0.17,0.5,0.12c0.72-0.23,1.5-0.35,2.3-0.35c4.28,0,7.77,3.48,7.77,7.77s-3.48,7.77-7.77,7.77 h-3.54c-0.28,0-0.5,0.22-0.5,0.5s0.22,0.5,0.5,0.5h3.54c4.83,0,8.77-3.93,8.77-8.77S63.67,17.64,58.84,17.64z"/><path d="M10.73,55.31v2.92c0,0.28,0.22,0.5,0.5,0.5s0.5-0.22,0.5-0.5v-2.92c0-0.28-0.22-0.5-0.5-0.5S10.73,55.04,10.73,55.31z"/><path d="M12.51,55.31v2.92c0,0.28,0.22,0.5,0.5,0.5s0.5-0.22,0.5-0.5v-2.92c0-0.28-0.22-0.5-0.5-0.5S12.51,55.04,12.51,55.31z"/><path d="M14.29,55.31v2.92c0,0.28,0.22,0.5,0.5,0.5s0.5-0.22,0.5-0.5v-2.92c0-0.28-0.22-0.5-0.5-0.5S14.29,55.04,14.29,55.31z"/><path d="M16.08,55.31v2.92c0,0.28,0.22,0.5,0.5,0.5s0.5-0.22,0.5-0.5v-2.92c0-0.28-0.22-0.5-0.5-0.5S16.08,55.04,16.08,55.31z"/><path d="M17.86,55.31v2.92c0,0.28,0.22,0.5,0.5,0.5s0.5-0.22,0.5-0.5v-2.92c0-0.28-0.22-0.5-0.5-0.5S17.86,55.04,17.86,55.31z"/><path d="M19.64,55.31v2.92c0,0.28,0.22,0.5,0.5,0.5s0.5-0.22,0.5-0.5v-2.92c0-0.28-0.22-0.5-0.5-0.5S19.64,55.04,19.64,55.31z"/><path d="M21.42,55.31v2.92c0,0.28,0.22,0.5,0.5,0.5s0.5-0.22,0.5-0.5v-2.92c0-0.28-0.22-0.5-0.5-0.5S21.42,55.04,21.42,55.31z"/><path d="M9.74,53.15V30.29h18.27c0.27,0,0.5-0.22,0.5-0.5c0-0.28-0.23-0.5-0.5-0.5H9.24c-0.28,0-0.5,0.22-0.5,0.5v23.86 c0,0.28,0.22,0.5,0.5,0.5h41.54c0.27,0,0.5-0.22,0.5-0.5V29.79c0-0.28-0.23-0.5-0.5-0.5h-1.14c-0.28,0-0.5,0.22-0.5,0.5 c0,0.28,0.22,0.5,0.5,0.5h0.64v22.86H9.74z"/><path d="M51.77,26.95h-2.73c-0.28,0-0.5,0.22-0.5,0.5c0,0.28,0.22,0.5,0.5,0.5h2.73c0.47,0,0.85,0.37,0.85,0.85v29.74 c0,0.48-0.38,0.85-0.85,0.85H8.25c-0.48,0-0.85-0.37-0.85-0.85V28.8c0-0.48,0.37-0.85,0.85-0.85h20.37c0.27,0,0.5-0.22,0.5-0.5 c0-0.28-0.23-0.5-0.5-0.5H8.25c-1.02,0-1.85,0.83-1.85,1.85v29.74c0,1.02,0.83,1.85,1.85,1.85h14.92v4.45h-2.91 c-0.28,0-0.5,0.23-0.5,0.5V69c0,0.27,0.22,0.5,0.5,0.5h19.5c0.28,0,0.5-0.23,0.5-0.5v-3.66c0-0.27-0.22-0.5-0.5-0.5h-2.92v-4.45 h14.93c1.02,0,1.85-0.83,1.85-1.85V28.8C53.62,27.78,52.79,26.95,51.77,26.95z"/><path d="M46.14,56.76c0,0.98,0.79,1.78,1.75,1.78c0.98,0,1.78-0.8,1.78-1.78c0-0.97-0.8-1.75-1.78-1.75 C46.93,55.01,46.14,55.79,46.14,56.76z"/><path d="M42.34,56.76c0,0.77,0.62,1.39,1.37,1.39c0.77,0,1.39-0.62,1.39-1.39c0-0.75-0.62-1.36-1.39-1.36 C42.96,55.4,42.34,56.01,42.34,56.76z"/><path d="M35.2,49.11c0-0.89-0.73-1.62-1.63-1.62c-0.89,0-1.62,0.73-1.62,1.62c0,0.9,0.73,1.63,1.62,1.63 C34.47,50.74,35.2,50.01,35.2,49.11z"/><path d="M43.16,49.11c0-0.89-0.73-1.62-1.63-1.62c-0.9,0-1.62,0.73-1.62,1.62c0,0.9,0.72,1.63,1.62,1.63 C42.43,50.74,43.16,50.01,43.16,49.11z"/><path d="M39.18,49.11c0-0.89-0.73-1.62-1.63-1.62c-0.89,0-1.62,0.73-1.62,1.62c0,0.9,0.73,1.63,1.62,1.63 C38.45,50.74,39.18,50.01,39.18,49.11z"/><path d="M47.14,49.11c0-0.89-0.74-1.62-1.64-1.62c-0.89,0-1.61,0.73-1.61,1.62c0,0.9,0.72,1.63,1.61,1.63 C46.4,50.74,47.14,50.01,47.14,49.11z"/><path d="M64.6,26.41c0-0.28-0.22-0.5-0.5-0.5s-0.5,0.22-0.5,0.5c0,2.63-2.14,4.77-4.77,4.77c-0.28,0-0.5,0.22-0.5,0.5 s0.22,0.5,0.5,0.5C62.02,32.18,64.6,29.59,64.6,26.41z"/><path d="M46.05,7.5c-0.28,0-0.5,0.22-0.5,0.5s0.22,0.5,0.5,0.5c3.97,0,7.21,3.23,7.21,7.21c0,0.28,0.22,0.5,0.5,0.5 s0.5-0.22,0.5-0.5C54.26,11.18,50.58,7.5,46.05,7.5z"/><path d="M31.12,14.71c-2.72,0-4.94,2.22-4.94,4.94c0,0.54,0.08,1.04,0.24,1.5c0.07,0.21,0.27,0.34,0.47,0.34 c0.05,0,0.11-0.01,0.16-0.03c0.26-0.09,0.4-0.38,0.31-0.64c-0.12-0.35-0.18-0.75-0.18-1.17c0-2.17,1.77-3.94,3.94-3.94 c0.28,0,0.5-0.22,0.5-0.5S31.4,14.71,31.12,14.71z"/><path d="M18.64,26.21c0.89-1.25,2.54-1.7,3.93-1.07c0.25,0.12,0.55,0,0.66-0.25s0-0.55-0.25-0.66c-1.82-0.83-3.99-0.24-5.16,1.4 c-0.16,0.22-0.11,0.54,0.12,0.7c0.09,0.06,0.19,0.09,0.29,0.09C18.39,26.42,18.54,26.34,18.64,26.21z"/><path d="M45.29,23.37c0.06-0.11,0.03-0.26-0.08-0.35l-1.08-0.88c-0.07-0.07-0.15-0.07-0.2-0.07c-0.06,0.01-0.11,0.03-0.16,0.07 l-0.66,0.56c-0.22,0.18-0.47,0.3-0.75,0.33c-0.21,0.02-0.43-0.01-0.67-0.1c-0.52-0.22-1.04-0.37-1.5-0.45 c-0.51-0.08-0.93-0.45-1.1-1.01l-0.23-0.78c-0.05-0.14-0.16-0.22-0.3-0.2l-1.4,0.15c-0.2,0.02-0.25,0.23-0.26,0.35l-0.05,0.68 c-0.01,0.55-0.34,1.03-0.86,1.25c-0.45,0.18-0.92,0.44-1.39,0.76c-0.18,0.12-0.4,0.21-0.63,0.23c-0.28,0.03-0.56-0.03-0.83-0.17 l-0.75-0.42c-0.06-0.03-0.12-0.03-0.15-0.03c-0.04,0-0.13,0.03-0.19,0.11l-0.89,1.09c-0.09,0.1-0.09,0.24,0,0.36l0.49,0.57 c0.4,0.38,0.52,0.99,0.29,1.51c-0.19,0.46-0.34,0.98-0.44,1.48c-0.07,0.5-0.44,0.94-0.99,1.13l-0.81,0.22 c-0.12,0.03-0.21,0.17-0.19,0.3l0.15,1.4c0.01,0.13,0.13,0.23,0.25,0.24l0.88,0.07c0.53,0.06,0.99,0.41,1.14,0.85 c0.2,0.5,0.46,0.96,0.79,1.43c0.27,0.41,0.29,0.92,0.05,1.43l-0.42,0.73c-0.07,0.12-0.04,0.26,0.07,0.35l1.09,0.89 c0.07,0.07,0.16,0.07,0.21,0.07c0.03,0,0.09-0.02,0.15-0.07l0.63-0.55c0.22-0.18,0.5-0.3,0.77-0.33c0.22-0.02,0.44,0,0.67,0.09 c0.49,0.22,1.02,0.37,1.6,0.47c0.52,0.13,0.91,0.52,1.01,0.97l0.22,0.79c0.05,0.14,0.17,0.24,0.3,0.23l1.4-0.15 c0.13-0.01,0.23-0.13,0.25-0.26l0.06-0.78c0.01-0.57,0.36-1.07,0.85-1.25c0.5-0.2,0.95-0.45,1.42-0.78 c0.18-0.12,0.38-0.19,0.61-0.21c0.28-0.03,0.58,0.03,0.8,0.15l0.76,0.41c0.06,0.03,0.12,0.04,0.17,0.04c0.04,0,0.12-0.02,0.18-0.11 l0.88-1.08c0.09-0.11,0.09-0.26,0-0.36l-0.59-0.68c-0.32-0.4-0.39-0.95-0.2-1.38c0.22-0.55,0.37-1.06,0.46-1.55 c0.08-0.49,0.44-0.9,0.99-1.08l0.81-0.22c0.13-0.05,0.22-0.17,0.2-0.3l-0.15-1.4c-0.01-0.13-0.13-0.23-0.25-0.25l-0.86-0.06 c-0.5-0.04-0.92-0.33-1.18-0.85c-0.18-0.47-0.45-0.94-0.78-1.42c-0.28-0.43-0.29-0.98-0.05-1.42L45.29,23.37z M39.24,33.81 c-2.22,0.23-4.21-1.38-4.44-3.6s1.38-4.21,3.6-4.44c2.22-0.23,4.21,1.38,4.44,3.6S41.46,33.58,39.24,33.81z"/><path d="M29.77,35.71c0.07-0.1,0.05-0.22-0.03-0.3l-0.87-0.87c-0.06-0.06-0.13-0.07-0.16-0.07c-0.03,0-0.08,0.01-0.13,0.04 l-0.63,0.44c-0.2,0.14-0.44,0.21-0.68,0.21c-0.22,0-0.44-0.06-0.57-0.15c-0.45-0.24-0.89-0.42-1.31-0.53 c-0.46-0.14-0.8-0.54-0.84-0.95l-0.15-0.75c-0.02-0.11-0.11-0.19-0.22-0.19h-1.23c-0.18,0-0.24,0.24-0.25,0.28l-0.11,0.61 c-0.07,0.5-0.44,0.9-0.85,0.99c-0.46,0.14-0.9,0.32-1.35,0.57l-0.3,0.12h-0.23c-0.28,0-0.54-0.09-0.69-0.22l-0.63-0.43 c-0.04-0.03-0.08-0.04-0.13-0.04c-0.04,0-0.11,0.01-0.16,0.06l-0.87,0.87c-0.09,0.09-0.1,0.2-0.02,0.31l0.41,0.59 c0.28,0.39,0.31,0.9,0.08,1.3c-0.23,0.41-0.41,0.85-0.53,1.28c-0.13,0.46-0.55,0.81-0.97,0.86l-0.72,0.13 c-0.11,0.02-0.2,0.12-0.2,0.24v1.22c0,0.12,0.08,0.21,0.2,0.24l0.76,0.14c0.46,0.1,0.8,0.42,0.92,0.83 c0.13,0.45,0.31,0.89,0.53,1.29c0.23,0.41,0.2,0.92-0.06,1.29l-0.43,0.63c-0.06,0.09-0.05,0.21,0.03,0.29l0.88,0.88 c0.05,0.05,0.12,0.06,0.15,0.06c0.03,0,0.08-0.01,0.14-0.05l0.6-0.41c0.21-0.15,0.47-0.23,0.73-0.23l0.34,0.02l0.23,0.13 c0.41,0.22,0.84,0.41,1.24,0.53c0.47,0.11,0.84,0.5,0.91,0.97l0.13,0.73c0.02,0.11,0.12,0.2,0.23,0.2h1.23 c0.11,0,0.21-0.08,0.23-0.21l0.13-0.65c0.05-0.49,0.39-0.9,0.87-1.04c0.42-0.11,0.85-0.29,1.26-0.51L27,46.29h0.26 c0.26,0,0.51,0.08,0.7,0.22l0.61,0.42c0.05,0.04,0.1,0.04,0.14,0.04c0.03,0,0.1-0.01,0.16-0.07l0.87-0.86 c0.08-0.08,0.1-0.2,0.02-0.3l-0.45-0.65c-0.26-0.42-0.26-0.92-0.05-1.24c0.24-0.43,0.41-0.86,0.54-1.31 c0.12-0.42,0.47-0.73,0.97-0.84l0.72-0.13c0.12-0.02,0.19-0.12,0.19-0.24v-1.22c0-0.12-0.08-0.21-0.19-0.24l-0.67-0.12 c-0.49-0.06-0.91-0.42-1.02-0.87c-0.13-0.45-0.3-0.87-0.53-1.27c-0.23-0.41-0.2-0.92,0.07-1.3L29.77,35.71z M23.56,44.28 c-1.96,0-3.55-1.6-3.55-3.56c0-1.96,1.59-3.55,3.55-3.55c1.96,0,3.56,1.59,3.56,3.55C27.12,42.68,25.52,44.28,23.56,44.28z"/></g></svg>