<?xml version="1.0" encoding="UTF-8" standalone="no"?><svg xmlns="http://www.w3.org/2000/svg" xmlns:xlink="http://www.w3.org/1999/xlink" fill="#bc9a50" height="119.2" preserveAspectRatio="xMidYMid meet" version="1" viewBox="0.0 4.3 128.0 119.2" width="128" zoomAndPan="magnify"><g id="change1_1"><path d="M76,5.9c-0.3-1.1-1.5-1.6-2.5-1.3l-62,19.5c-0.3,0.1-0.5,0.2-0.8,0.4h71.1L76,5.9z" fill="inherit"/></g><g id="change1_2"><path d="M107.6,24.5L105,9.8c-0.2-1.1-1.2-1.8-2.3-1.6L84,11.5l3.5,11.1l0.8,1.9H107.6z" fill="inherit"/></g><g id="change1_3"><circle cx="101" cy="74.5" fill="inherit" r="3"/></g><g id="change1_4"><path d="M124.4,90.5H94.7c-4.2,0-7.6-3.9-7.6-8.6V67.1c0-4.8,3.4-8.6,7.6-8.6h29.7c0.2,0,0.5,0,0.7,0v-24c0-3.3-2.7-6-6.1-6H6.1 c-3.4,0-6.1,2.7-6.1,6v83c0,3.3,2.7,6,6.1,6H119c3.4,0,6.1-2.7,6.1-6v-27C124.9,90.5,124.6,90.5,124.4,90.5z" fill="inherit"/></g><g id="change1_5"><path d="M124.4,62.5H94.7c-2,0-3.6,2.1-3.6,4.6v14.7c0,2.6,1.6,4.6,3.6,4.6h29.7c2,0,3.6-2.1,3.6-4.6V67.1 C128,64.6,126.4,62.5,124.4,62.5z M101,79.5c-2.8,0-5-2.2-5-5s2.2-5,5-5s5,2.2,5,5S103.8,79.5,101,79.5z" fill="inherit"/></g></svg>