<?xml version="1.0" encoding="UTF-8" standalone="no"?><svg xmlns="http://www.w3.org/2000/svg" xmlns:xlink="http://www.w3.org/1999/xlink" fill="#000000" height="24" preserveAspectRatio="xMidYMid meet" version="1" viewBox="0.0 -0.0 24.0 24.0" width="24" zoomAndPan="magnify"><g id="change1_1"><path d="m22.278,7.695h-2.83c-.61-.025-1.148-.21-1.474-.351l.343-1.363c.064-.254.139-.513.214-.775.225-.78.457-1.587.468-2.404.004-.346-.042-1.518-.831-2.062-.781-.539-1.856-.342-2.4.446l-1.417,2.146c-.528-.177-1.024-.377-1.484-.624C10.64,1.516,8.824.118,8.806.104c-.171-.132-.406-.14-.583-.021-.017.011-1.722,1.147-3.673,2.326-1.267.765-2.65,1.244-4.11,1.424-.251.031-.439.244-.439.496v8.067c0,4.923,2.98,9.419,7.415,11.189l.899.359c.06.024.123.036.186.036s.126-.012.185-.036l.899-.359c2.432-.97,4.478-2.785,5.804-5.117h5.261c1.017,0,1.416-.916,1.68-1.522.417-.96,1.67-6.803,1.67-7.53,0-.949-.772-1.722-1.722-1.722Zm-13.064,14.962l-.714.285-.714-.285c-4.059-1.619-6.786-5.743-6.786-10.26v-7.634c1.439-.234,2.806-.737,4.066-1.498,1.49-.9,2.839-1.776,3.416-2.155.609.449,2.114,1.515,3.913,2.479.437.234.892.436,1.379.612l-.62.945c-1.06,1.089-3.415,2.374-3.82,2.591-.436-.443-1.047-.723-1.727-.723h-1.106c-.276,0-.5.224-.5.5v9.984c0,.276.224.5.5.5h1.106c.799,0,1.503-.385,1.938-.971.059.048.118.095.18.141.051.037.106.068.159.103.187.124.382.236.589.336.043.021.086.041.13.061,1.044.473,2.259.676,3.247.754.037.003.069.005.106.008.097.007.199.017.29.021-1.213,1.908-2.974,3.386-5.029,4.206Zm-1.607-5.658h-.606v-8.984h.606c.769,0,1.394.594,1.394,1.325v6.335c0,.73-.625,1.324-1.394,1.324Zm13.806-.452c-.283.65-.452.921-.763.921h-5.314c-.005,0-.101.003-.252.003-1.582-.005-3.455-.269-4.604-.995-.019-.012-.039-.024-.058-.037-.155-.102-.297-.211-.421-.332v-7.594c.743-.408,2.828-1.602,3.928-2.743l2.668-4.025c.226-.328.676-.41,1.004-.184.282.194.404.772.398,1.226-.009.682-.222,1.423-.429,2.14-.079.273-.156.543-.223.808l-.441,1.755c-.054.214.039.438.229.551.041.024,1.017.6,2.293.652h2.851c.398,0,.722.324.722.722,0,.587-1.234,6.32-1.587,7.131Z" fill="#bc9a50"/></g></svg>