<?xml version="1.0" encoding="UTF-8" standalone="no"?><svg xmlns="http://www.w3.org/2000/svg" xmlns:xlink="http://www.w3.org/1999/xlink" fill="#bc9a50" height="79.4" preserveAspectRatio="xMidYMid meet" version="1" viewBox="6.2 5.3 77.1 79.4" width="77.1" zoomAndPan="magnify"><g id="change1_1"><path clip-rule="evenodd" d="M64.667,5.35c-10.291,0-18.675,8.384-18.675,18.68 c0,1.942,0.297,3.822,0.854,5.587c1.443,0.016,2.89,0.042,4.349,0.098c-0.74-1.743-1.146-3.666-1.146-5.686 c0-8.098,6.52-14.624,14.618-14.624c8.097,0,14.628,6.526,14.628,14.624c0,7.015-4.906,12.842-11.488,14.274 c0.65,1.244,1.208,2.5,1.728,3.754c7.947-2.151,13.817-9.42,13.817-18.028C83.352,13.734,74.962,5.35,64.667,5.35z" fill="inherit" fill-rule="evenodd"/></g><g id="change1_2"><path d="M61.838,18.9h1.896c1.411,0,2.35,0.037,2.817,0.131c2.479,0.472,3.015,3.993,0.527,5.072 c-0.511,0.214-1.552,0.302-3.1,0.302h-2.14V18.9z M57.922,15.614v14.634c1.36,0.14,2.829,0.568,3.917,1.14v-3.686h2.557 c1.771,0,3.125-0.095,4.057-0.281c0.688-0.151,1.364-0.454,2.03-0.912c0.667-0.462,1.219-1.104,1.652-1.91 c0.432-0.819,0.65-1.824,0.65-3.01c0-1.542-0.375-2.808-1.125-3.775c-0.75-0.975-1.683-1.609-2.796-1.901 c-0.724-0.193-2.272-0.297-4.662-0.297H57.922z" fill="inherit"/></g><g id="change1_3"><path clip-rule="evenodd" d="M54.459,60.676H29.931c-1.041,0-1.276,1.202-0.795,2.369 c1.01,2.458,3.603,4.11,6.243,4.11h13.634c2.64,0,5.24-1.652,6.243-4.11C55.735,61.878,55.49,60.826,54.459,60.676z M14.252,60.577 c-0.448,1.364-0.959,4.057,1.462,4.942c1.991,0.73,6.172,1.25,8.401,1.588c2.141,0.319,2.677-0.943,1.931-2.833 c-1.39-3.5-4.525-4.238-7.472-4.743C15.631,59.025,14.58,59.556,14.252,60.577z M65.816,59.531 c-2.942,0.505-6.082,1.243-7.467,4.743c-0.75,1.89-0.213,3.152,1.932,2.833c2.229-0.338,6.412-0.858,8.395-1.588 c2.421-0.885,1.911-3.578,1.468-4.942C69.811,59.556,68.759,59.025,65.816,59.531z M42.196,35.955 c-4.6,0.005-9.567,0.167-13.774,0.453c-1.595,0.109-3.057,0.969-4.037,2.563c-2.109,3.41-3.984,6.624-5.166,10.195 c0,0,13.186,1.319,22.977,1.319c9.789,0,22.98-1.319,22.98-1.319c-1.188-3.571-3.062-6.785-5.166-10.195 c-0.984-1.594-2.448-2.454-4.041-2.563C51.767,36.122,46.794,35.96,42.196,35.955z M42.196,32.747 c5.341,0,10.794-0.026,16.012,0.703c2.417,0.333,3.98,1.756,5.1,3.401c2.541,3.75,4.181,7.707,5.618,11.712h6.396 c1.781,0,2.843,1.385,2.384,3.103c-0.509,1.901-1.088,2.838-3.879,3.485l-1.068,0.25c0.833,1.589,1.442,3.265,1.442,4.764v12.307 c0,2.062-1.426,3.795-3.082,4.447v5.759c0,1.125-0.901,2.03-2.026,2.03h-5.754c-1.125,0-2.03-0.905-2.03-2.03v-5.473H23.089v5.473 c0,1.125-0.901,2.03-2.026,2.03h-5.754c-1.125,0-2.032-0.905-2.032-2.03v-5.759c-1.656-0.652-3.088-2.385-3.088-4.447V60.165 c0-1.5,0.615-3.175,1.442-4.764l-1.062-0.25c-2.792-0.646-3.369-1.583-3.88-3.485c-0.463-1.718,0.599-3.103,2.385-3.103h6.396 c1.431-4.005,3.071-7.962,5.619-11.712c1.118-1.645,2.675-3.067,5.097-3.401C31.405,32.721,36.853,32.747,42.196,32.747z" fill="inherit" fill-rule="evenodd"/></g></svg>